PathFileType	4	(X/Y/Z)	Patient4_TMGait_0pt7_01_left_01.trc.trc
DataRate	CameraRate	NumFrames	NumMarkers	Units	OrigDataRate	OrigDataStartFrame	OrigNumFrames
86.956521739130	86.956521739130	5	33	mm	86.956521739130	71	       141
Frame#	Time	Sacral			L.Shoulder			Chest			R.Shoulder			Neck			R.ASIS			L.ASIS			R.Thigh.Superior			R.Thigh.Lateral			R.Thigh.Inferior			R.Patella			L.Thigh.Superior			L.Thigh.Lateral			L.Thigh.Inferior			L.Patella			L.Shank.Superior			L.Shank.Lateral			L.Shank.Inferior			R.Shank.Superior			R.Shank.Lateral			R.Shank.Inferior			R.Heel			R.Midfoot.Superior			R.Midfoot.Lateral			R.Toe			L.Heel			L.Midfoot.Lateral			L.Midfoot.Superior			L.Toe			L.Elbow			L.Wrist			R.Elbow			R.Wrist			
		X1	Y1	Z1	X2	Y2	Z2	X3	Y3	Z3	X4	Y4	Z4	X5	Y5	Z5	X6	Y6	Z6	X7	Y7	Z7	X8	Y8	Z8	X9	Y9	Z9	X10	Y10	Z10	X11	Y11	Z11	X12	Y12	Z12	X13	Y13	Z13	X14	Y14	Z14	X15	Y15	Z15	X16	Y16	Z16	X17	Y17	Z17	X18	Y18	Z18	X19	Y19	Z19	X20	Y20	Z20	X21	Y21	Z21	X22	Y22	Z22	X23	Y23	Z23	X24	Y24	Z24	X25	Y25	Z25	X26	Y26	Z26	X27	Y27	Z27	X28	Y28	Z28	X29	Y29	Z29	X30	Y30	Z30	X31	Y31	Z31	X32	Y32	Z32	X33	Y33	Z33	

71	1.935000000000	736.096273500081	999.878891707834	503.282483440202	931.830871519817	1416.092006539887	314.712393416563	1019.928302345343	1353.486981088816	488.706361666042	923.363160598280	1441.245369797945	649.500796647090	918.921233102226	1485.369928405833	467.134004216291	956.261386233170	932.191009848826	633.402097310969	961.762994041498	958.631210807819	358.309959305078	1030.932996844683	763.893116917807	609.965068104485	987.284660772701	639.221428913684	681.810792332157	1081.134870593308	605.586031857320	605.818418343327	1116.375092152745	521.136468248171	624.306980730744	956.452991867440	732.880779749109	381.311539347851	837.076193776684	639.530430850854	321.018225603307	898.607827718400	545.561266278976	381.656835802705	883.428253834782	479.653042018168	390.335947258726	852.750514665169	414.083842948605	383.951416649709	751.603051918495	305.425829096265	339.666115867784	801.672538690821	192.282861724284	410.844469915895	1098.180208623607	432.130342180518	631.764630890451	1039.128627832060	318.435517670472	689.528779807434	1110.046176078238	231.943958165528	641.298372983948	1016.377265749805	47.230152858039	603.719386889611	1176.868715589760	119.396854906421	657.431193027415	1094.100696198786	44.938236782071	684.556791202258	1297.304766138772	79.977343149094	694.720071927856	671.360343798271	37.401873670417	462.674074766016	742.527757818983	34.656002298162	379.401560237252	826.151463486908	95.969509727102	402.740697424003	953.586668258200	46.196668175585	371.655273599043	949.485636202698	1071.246567547012	196.841827177581	1180.111278937701	1161.276193114954	193.884452916369	755.792168339069	1151.307828837102	777.421440564547	711.624794315478	897.579649347728	817.466737081310	
72	1.946500000000	736.665827820947	998.230965129484	505.705423743760	931.614564504756	1414.897108227677	316.966160578326	1020.147785803660	1351.969947157452	490.606050907204	924.001318102170	1439.681952886775	651.638659084112	919.211877956517	1483.865407675835	469.399613657478	957.056789177119	930.566457363463	634.950995404379	960.831788439212	957.283466840789	359.620796689293	1030.484719414710	760.613633482841	610.991749439754	985.146595797709	636.157101402539	681.966024998576	1078.252973105063	602.060429400737	605.292871468444	1112.507267563145	518.345001790146	622.803398467329	955.463670535108	731.430565302599	382.447781189272	835.375607369836	638.725941346451	322.320154867268	896.310109291943	544.297852663615	382.874276046351	880.630872904243	478.047242166759	391.561952681062	849.135680586993	412.636819557679	385.022139464284	746.624050474341	305.363004299954	340.465051040375	795.050183885077	191.458895195452	411.387434889442	1095.637096791032	429.275890704185	630.832071735171	1038.120881845300	314.688360722218	688.326701786054	1110.287693453250	229.312619674439	639.923093355444	1018.794901989967	44.121892431639	602.697829062937	1178.918661944892	117.480521490846	655.376992175233	1096.861314741232	42.828439008941	683.368072439487	1299.956561270006	79.096237876788	692.360196650189	663.243125523291	37.261613759584	462.689163074431	734.410188410600	34.607648062816	379.436146584762	818.084893621914	95.815441605098	402.950289728895	945.521033431798	45.955332777671	371.640847462473	949.831141807881	1070.846929812808	197.633457863983	1175.024831445808	1172.911724756690	195.680847707585	754.449220963902	1151.351083908336	779.583433589973	708.638776608023	897.861621581668	819.259223514858	
73	1.958000000000	737.291693478160	996.495256778650	508.291385946553	931.303629976496	1413.662245153153	319.376783640325	1020.404799973138	1350.447762222501	492.608831933042	924.707136409193	1438.064668007591	653.949600789496	919.531844126686	1482.359850004203	471.835879734989	957.946928661792	928.943632400990	636.604282702099	959.946907617515	955.887425095779	361.041295303655	1030.594152836364	757.717422729289	612.086742783037	983.653971057205	633.418182653359	682.092878980475	1076.190175208230	599.087670482505	604.931860957861	1109.305385124348	515.698347485014	621.501880979826	954.900915519828	729.968956322067	383.725565648929	834.179859038465	637.777971282088	323.821988679681	894.632864311470	542.922572057045	384.261673256920	878.493658517935	476.224936476747	392.983236256697	846.046170048980	410.990943697990	386.285075896833	742.049781957995	305.277014882231	341.413936361968	788.609009189352	190.539195211313	412.031827204105	1093.238805572916	426.432094860316	629.992360814834	1036.432386678566	311.390087213743	687.098757907276	1109.132438395095	226.669272545781	638.475274132811	1018.333054184556	42.030901636682	601.445316377089	1178.515777638887	115.118652108981	653.143626205067	1096.598071274667	41.108653152887	681.972519434721	1299.809391509921	76.892213764494	689.986018348697	655.125309474923	37.122908109075	462.707129699881	726.309231503503	34.548152169666	379.495037506915	810.057879861613	95.648900344377	403.198244307324	937.500322851604	45.636652986225	371.624117802067	949.926867466877	1070.363384518541	198.527498702294	1169.756618018067	1182.934450483554	197.435683470492	753.961414349738	1150.756959413935	781.913059350175	707.031939308539	897.363089114049	821.073404179069	
74	1.969500000000	737.935096841021	994.740517487661	511.006218627052	930.912521984904	1412.433034792523	321.928153450377	1020.696827714710	1348.968079241116	494.708980018286	925.470420682142	1436.439992145353	656.423652694528	919.893419418250	1480.902909011578	474.425692663198	958.912556659472	927.387599516695	638.358121275786	959.191786954403	954.492764549656	362.602586302333	1031.261695440893	755.295113777069	613.233093256102	982.822548621300	631.080105037846	682.205357774183	1074.989518991526	596.729066113087	604.775687557757	1106.839862201710	513.273758131755	620.429182695983	954.742046639484	728.529186347681	385.152609368952	833.484418675077	636.697327960042	325.531814976711	893.607016740946	541.451262221680	385.812758605564	877.073315772697	474.191746129852	394.562007499561	843.499775973182	409.176606556738	387.721091003987	737.878437733813	305.214339087158	342.527023880872	782.359373077911	189.565071452176	412.766586280055	1091.099124532159	423.699405825214	629.272963581776	1034.307175672608	308.597502878160	686.010084150922	1106.824638414055	224.073304199435	637.071086743445	1015.319832551427	40.817481841590	600.152675073569	1175.960121706377	112.413364603240	650.937084819232	1093.671415106232	39.731291728116	680.551826570465	1297.212730448249	73.608537466391	687.764045687223	647.014339089267	37.047065414139	462.730329914037	718.234866965926	34.498767584397	379.583288765907	802.098479902836	95.479309973928	403.472181567174	929.535013002398	45.228088079958	371.603417447156	949.684887193660	1069.810466954359	199.564922049727	1164.463731008013	1191.321053248591	199.127432982985	754.364794823766	1149.517099260838	784.406498076079	706.834722305930	896.084907737966	822.917824245807	
75	1.981000000000	738.557570002304	993.044450544127	513.813797150207	930.471443574410	1411.265465578303	324.601586232746	1021.023484699565	1347.580371840942	496.901813661228	926.283271402504	1434.862138074780	659.045737666197	920.314292028362	1479.549137776444	477.148746006560	959.932298293809	925.975634708208	640.208842522352	958.616743672044	953.152346045495	364.323507459218	1032.444343042277	753.413225424542	614.420185952098	982.632468471014	629.208856153341	682.346406655275	1074.619982269249	595.000770990262	604.858576459153	1105.118295977496	511.138531474946	619.614580919837	954.950009749943	727.155123175225	386.732917109901	833.278808306598	635.504323736388	327.447735300545	893.264463261032	539.912464322571	387.510609445875	876.430276442560	471.968025069004	396.237835982229	841.517204072309	407.237036531546	389.293462150790	734.109415092747	305.237769449547	343.810123429436	776.320242065063	188.595514255296	413.569573613358	1089.291504495289	421.178164434603	628.702515046489	1031.990311579198	306.354715202330	685.219301689321	1103.637505462432	221.606885399885	635.812668801348	1010.205348051935	40.306828949185	598.986190191286	1171.627574188544	109.540837263989	648.946379989482	1088.564511992460	38.657372164340	679.265483285103	1292.605903259421	69.624643542694	685.831818684843	638.924327297564	37.128628171418	462.761296379766	710.199489740536	34.497640463734	379.703668802642	794.244136598737	95.320416563807	403.751654247241	921.632859185319	44.721927677174	371.576189649016	949.016964504598	1069.213405362346	200.792339373902	1159.279768468859	1198.074935843991	200.741514062484	755.673263503406	1147.659040368153	787.055479072890	708.078686186336	894.061517010716	824.798600695936	
